<?xml version="1.0" encoding="UTF-8" standalone="no"?><!DOCTYPE svg PUBLIC "-//W3C//DTD SVG 1.1//EN" "http://www.w3.org/Graphics/SVG/1.1/DTD/svg11.dtd"><svg width="100%" height="100%" viewBox="0 0 1771 494" version="1.1" xmlns="http://www.w3.org/2000/svg" xmlns:xlink="http://www.w3.org/1999/xlink" xml:space="preserve" xmlns:serif="http://www.serif.com/" style="fill-rule:evenodd;clip-rule:evenodd;stroke-linejoin:round;stroke-miterlimit:1.41421;"><rect x="0" y="0" width="1770.81" height="493.633" style="fill:#ffffff;fill-opacity:0;"/><path d="M50.297,366.394l0,-247.917l123.959,123.959l123.958,-123.959l0,247.917l-61.979,0l0,-92.969l-61.979,61.979l-61.98,-61.979l0,92.969l-61.979,0Z" style="fill-rule:nonzero;"/><path d="M422.172,459.363l0,-201.432l-92.969,-92.969l0,-92.969l123.959,123.958l77.474,-77.474l92.968,0l-139.453,139.454l0,139.453l-61.979,61.979Z" style="fill-rule:nonzero;"/><path d="M561.625,366.394l61.979,-61.979l139.454,0l30.989,-30.99l-185.937,0l0,-92.968l61.979,-61.98l232.422,0l-61.979,61.98l-139.454,0l-30.989,30.989l185.937,0l0,92.969l-61.979,61.979l-232.422,0Z" style="fill-rule:nonzero;"/><path d="M948.995,459.363l0,-278.906l-108.463,0l61.979,-61.98l46.484,0l0,-30.989l61.979,-61.979l0,92.968l108.464,0l-61.979,61.98l-46.485,0l0,216.927l-61.979,61.979Z" style="fill-rule:nonzero;"/><path d="M1382.85,490.352l-216.927,-216.927l92.969,-92.968l-92.969,0l0,185.937l-61.979,0l0,-247.917l247.917,0l0,61.98l-92.969,92.968l123.958,123.959l0,92.968Z" style="fill-rule:nonzero;"/><path d="M1382.85,366.394l0,-185.937l61.979,-61.98l0,185.938l-61.979,61.979Z" style="fill-rule:nonzero;"/><path d="M1723.74,412.878l-123.959,-123.958l-77.474,77.474l-92.968,0l123.958,-123.958l-77.474,-77.474l0,-92.969l123.958,123.958l77.474,-77.474l92.969,0l-123.958,123.959l77.474,77.474l0,92.968Z" style="fill-rule:nonzero;"/></svg>