<?xml version="1.0" encoding="UTF-8" standalone="no"?><!DOCTYPE svg PUBLIC "-//W3C//DTD SVG 1.1//EN" "http://www.w3.org/Graphics/SVG/1.1/DTD/svg11.dtd"><svg width="100%" height="100%" viewBox="0 0 97 130" version="1.1" xmlns="http://www.w3.org/2000/svg" xmlns:xlink="http://www.w3.org/1999/xlink" xml:space="preserve" xmlns:serif="http://www.serif.com/" style="fill-rule:evenodd;clip-rule:evenodd;stroke-linecap:round;stroke-linejoin:round;stroke-miterlimit:1.5;"><g><path d="M16.068,7.602c-9.115,7.895 -10.979,20.18 3.85,33.531c-6.752,-8.888 -11.007,-17.496 -7.71,-25.257c0.047,7.106 2.997,13.207 8.886,18.294c-6.329,-8.639 -9.079,-17.445 -5.026,-26.568Z" style="stroke:#000;stroke-width:0.55px;"/><path d="M5.449,12.941c-4.549,12.455 -0.861,23.033 9.723,32.039c-5.677,-6.44 -8.854,-12.857 -9.186,-19.249c1.452,3.855 3.59,7.348 7.459,9.924c-5.785,-6.877 -8.95,-14.337 -7.996,-22.714Z" style="stroke:#000;stroke-width:0.55px;"/><path d="M17.069,46.178c-7.127,-1.439 -12.684,-5.173 -16.517,-11.429c2.141,10.452 8.484,17.627 22.231,19.025c-8.528,-2.036 -14.786,-5.436 -17.423,-11.011c4.319,2.873 8.122,3.598 11.709,3.415Z" style="stroke:#000;stroke-width:0.55px;"/><path d="M27.174,55.516c-8.717,0.954 -17.017,-0.62 -24.671,-6.132c9.62,18.158 22.498,9.187 33.382,30.245c-9.147,-20.789 -11.697,-11.99 -24.601,-24.182c6.779,2.527 11.709,1.931 15.89,0.069Z" style="stroke:#000;stroke-width:0.55px;"/><path d="M36.36,82.198c19.724,-9.979 28.174,-24.419 18.006,-46.224l1.845,-0.565c9.005,23.593 0.893,38.424 -19.851,46.789Z" style="stroke:#000;stroke-width:0.55px;"/><path d="M60.853,42.771l1.171,-0.111c4.147,21.291 -3.817,34.617 -23.405,40.299c15.842,-6.747 25.694,-18.217 22.234,-40.188Z" style="stroke:#000;stroke-width:0.55px;"/><path d="M48.35,49.925c2.64,-1.98 4.143,-5.163 4.683,-9.366l-1.829,-0.357l0.487,-0.453l-0.877,-0.059l0.55,-0.444l-1.193,-0.035l0.889,-0.713l-1.041,-0.164l0.95,-1.518l-4.861,-0.873l7.445,-8.117l-1.106,-0.821c-2.416,3.586 -5.801,6.465 -10.062,8.706c1.794,1.369 3.701,2.262 5.745,2.569l-0.455,0.708l0.891,0.204l-0.731,0.79l1.184,0.058l-0.467,0.731l1.315,0.205l-0.599,0.496l2.002,0.6c-0.242,2.908 -1.346,5.474 -2.92,7.853Z" style="stroke:#000;stroke-width:0.55px;"/><path d="M54.498,29.555c-1.684,0.799 -2.808,1.916 -3.589,3.227c1.266,-0.879 2.557,-1.667 3.917,-2.21l-0.328,-1.017Z" style="stroke:#000;stroke-width:0.55px;"/><path d="M54.351,26.623l-0.102,0.818l2.908,0.965c2.141,-1.79 3.977,-1.722 5.596,-0.321c-1.282,-1.853 -3.17,-2.272 -5.901,-0.694c-0.832,-0.434 -1.666,-0.726 -2.501,-0.768Z" style="stroke:#000;stroke-width:0.55px;"/><path d="M62.26,28.999c-0.955,-0.3 -1.911,-0.242 -2.868,0.164c-0.747,1.807 -1.882,3.402 -3.672,4.64l0.767,0.512c1.52,-1.22 2.706,-2.696 3.544,-4.44c0.593,-0.56 1.342,-0.841 2.229,-0.876Z" style="stroke:#000;stroke-width:0.55px;"/><path d="M60.954,40.274c8.982,-5.478 13.624,-11.211 12.489,-17.284c4.301,3.763 4.141,10.006 0.111,18.399c1.607,-3.819 2.359,-7.631 1.45,-11.43c-2.493,4.638 -7.832,7.716 -14.05,10.315Z" style="stroke:#000;stroke-width:0.55px;"/><path d="M76.428,39.506c4.632,-18.023 -4.484,-30.292 -24.594,-37.96c13.339,-1.185 29.142,6.858 33.671,23.296c-4.105,-8.743 -9.684,-15.658 -18.642,-18.38c10.271,10.221 13.571,21.223 9.565,33.044Z" style="stroke:#000;stroke-width:0.55px;"/><path d="M79.843,11.775c1.22,-5.081 3.601,-8.827 7.143,-11.237c-4.95,12.483 3.83,17.525 1.83,30.228c0.4,-9.23 -3.878,-13.489 -6.098,-21.865c-1.016,-0.029 -1.975,0.929 -2.875,2.874Z" style="stroke:#000;stroke-width:0.55px;"/><path d="M76.01,54.2c15.87,-8.612 11.57,-16.943 19.688,-29.096c-2.294,-0.067 -3.899,0.623 -4.879,2.003l1.133,0.871c-6.52,8.393 1.626,12.014 -15.942,26.222Z" style="stroke:#000;stroke-width:0.55px;"/><path d="M87.632,45.56c2.256,-1.694 4.391,-2.069 6.356,-0.557c-12.54,10.99 -6.709,20.943 -30.719,25.311c18.354,-4.82 17.465,-12.502 25.534,-23.973l-1.171,-0.781Z" style="stroke:#000;stroke-width:0.55px;"/><path d="M60.164,72.248c-4.492,5.678 -6.818,13.014 -6.527,21.464c-3.228,-1.457 -5.14,-4.239 -5.924,-8.154c0.999,1.53 2.247,2.759 3.972,3.415c1.386,-5.943 3.973,-11.578 8.479,-16.725Z" style="stroke:#000;stroke-width:0.55px;"/><path d="M47.016,85.767c1.122,12.072 6.297,16.837 -4.146,23.447c4.571,-13.406 -3.429,-14.417 -6.203,-25.018c3.915,8.762 9.31,10.557 9.896,18.119c3,-4.195 0.131,-8.245 0.453,-16.548Z" style="stroke:#000;stroke-width:0.55px;"/><path d="M51.302,96.182c-0.883,16.833 -9.455,14.114 -1.533,32.128c1.709,-19.495 11.004,-22.597 1.533,-32.128Z" style="fill-opacity:0;"/><path d="M51.412,96.293l0.109,0.111l0.106,0.11l0.105,0.11l0.104,0.109l0.101,0.109l0.1,0.108l0.099,0.107l0.096,0.107l0.096,0.107l0.093,0.106l0.092,0.105l0.09,0.105l0.089,0.105l0.087,0.104l0.085,0.103l0.084,0.103l0.083,0.103l0.08,0.102l0.08,0.102l0.077,0.101l0.077,0.101l0.074,0.101l0.074,0.1l0.071,0.1l0.071,0.099l0.068,0.099l0.068,0.098l0.066,0.099l0.064,0.098l0.063,0.097l0.061,0.097l0.061,0.097l0.058,0.097l0.058,0.096l0.056,0.096l0.054,0.096l0.053,0.095l0.052,0.095l0.051,0.095l0.049,0.094l0.048,0.095l0.046,0.094l0.045,0.094l0.044,0.093l0.043,0.093l0.041,0.094l0.04,0.093l0.039,0.092l0.037,0.093l0.036,0.092l0.035,0.092l0.034,0.092l0.033,0.092l0.031,0.092l0.03,0.092l0.029,0.091l0.028,0.091l0.027,0.092l0.025,0.091l0.024,0.091l0.023,0.091l0.022,0.091l0.021,0.09l0.02,0.091l0.019,0.091l0.017,0.09l0.017,0.091l0.015,0.09l0.015,0.091l0.013,0.09l0.012,0.091l0.011,0.09l0.011,0.091l0.009,0.09l0.008,0.091l0.007,0.09l0.006,0.091l0.005,0.091l0.004,0.09l0.004,0.091l0.002,0.091l0.001,0.091l0.001,0.091l-0.001,0.091l-0.001,0.091l-0.003,0.091l-0.003,0.092l-0.004,0.091l-0.005,0.092l-0.006,0.092l-0.007,0.092l-0.008,0.092l-0.008,0.092l-0.009,0.093l-0.01,0.093l-0.011,0.093l-0.012,0.093l-0.013,0.093l-0.013,0.093l-0.029,0.188l-0.032,0.189l-0.035,0.19l-0.037,0.191l-0.041,0.192l-0.043,0.193l-0.046,0.194l-0.049,0.196l-0.051,0.198l-0.053,0.199l-0.056,0.2l-0.058,0.202l-0.061,0.204l-0.062,0.206l-0.064,0.207l-0.067,0.209l-0.068,0.211l-0.07,0.213l-0.072,0.216l-0.074,0.217l-0.152,0.442l-0.157,0.451l-0.163,0.461l-0.339,0.953l-0.174,0.494l-0.178,0.506l-0.179,0.518l-0.091,0.264l-0.091,0.268l-0.091,0.27l-0.091,0.275l-0.091,0.277l-0.091,0.282l-0.091,0.284l-0.091,0.289l-0.091,0.293l-0.091,0.296l-0.09,0.3l-0.089,0.304l-0.09,0.308l-0.088,0.313l-0.088,0.316l-0.087,0.321l-0.087,0.325l-0.085,0.33l-0.085,0.333l-0.083,0.339l-0.083,0.343l-0.081,0.347l-0.08,0.353l-0.078,0.357l-0.077,0.361l-0.076,0.367l-0.074,0.372l-0.072,0.377l-0.071,0.381l-0.069,0.387l-0.067,0.393l-0.065,0.397l-0.063,0.403l-0.061,0.408l-0.059,0.414l-0.028,0.209l-0.028,0.21l-0.028,0.212l-0.027,0.213l-0.026,0.215l-0.025,0.216l-0.025,0.217l-0.025,0.219l-0.023,0.22l-0.023,0.222l-0.023,0.223l-0.022,0.225l-0.021,0.226l-0.02,0.228l-0.183,-0.418l-0.176,-0.411l-0.171,-0.404l-0.165,-0.396l-0.159,-0.39l-0.154,-0.382l-0.148,-0.375l-0.142,-0.368l-0.137,-0.362l-0.131,-0.356l-0.126,-0.348l-0.121,-0.343l-0.116,-0.336l-0.11,-0.33l-0.105,-0.325l-0.101,-0.318l-0.048,-0.157l-0.047,-0.156l-0.046,-0.154l-0.045,-0.153l-0.043,-0.151l-0.043,-0.15l-0.041,-0.149l-0.04,-0.147l-0.038,-0.146l-0.038,-0.145l-0.036,-0.143l-0.036,-0.143l-0.034,-0.14l-0.033,-0.14l-0.032,-0.139l-0.031,-0.137l-0.03,-0.136l-0.028,-0.135l-0.028,-0.133l-0.027,-0.133l-0.025,-0.131l-0.024,-0.13l-0.024,-0.129l-0.022,-0.128l-0.021,-0.127l-0.021,-0.126l-0.019,-0.124l-0.018,-0.124l-0.018,-0.123l-0.016,-0.121l-0.015,-0.121l-0.015,-0.12l-0.013,-0.118l-0.013,-0.118l-0.011,-0.117l-0.011,-0.115l-0.009,-0.115l-0.009,-0.114l-0.008,-0.113l-0.007,-0.113l-0.006,-0.111l-0.005,-0.11l-0.005,-0.11l-0.003,-0.109l-0.003,-0.108l-0.002,-0.107l-0.001,-0.107l0,-0.105l0.001,-0.105l0.002,-0.105l0.002,-0.103l0.003,-0.103l0.004,-0.102l0.005,-0.102l0.005,-0.1l0.006,-0.101l0.007,-0.099l0.008,-0.099l0.008,-0.098l0.009,-0.098l0.01,-0.097l0.011,-0.097l0.011,-0.096l0.012,-0.095l0.026,-0.19l0.028,-0.188l0.031,-0.185l0.034,-0.184l0.036,-0.183l0.039,-0.181l0.04,-0.179l0.043,-0.179l0.046,-0.177l0.047,-0.176l0.049,-0.175l0.051,-0.175l0.054,-0.173l0.055,-0.174l0.056,-0.172l0.059,-0.173l0.06,-0.172l0.061,-0.172l0.063,-0.172l0.065,-0.173l0.065,-0.172l0.067,-0.173l0.069,-0.173l0.069,-0.174l0.142,-0.35l0.145,-0.354l0.3,-0.723l0.153,-0.371l0.155,-0.378l0.156,-0.386l0.078,-0.197l0.078,-0.199l0.077,-0.201l0.078,-0.205l0.078,-0.207l0.077,-0.21l0.077,-0.213l0.077,-0.216l0.076,-0.219l0.076,-0.223l0.075,-0.226l0.074,-0.23l0.074,-0.233l0.073,-0.237l0.072,-0.242l0.071,-0.245l0.07,-0.249l0.069,-0.254l0.068,-0.258l0.066,-0.263l0.065,-0.267l0.064,-0.272l0.063,-0.277l0.061,-0.281l0.059,-0.287l0.058,-0.292l0.056,-0.298l0.054,-0.303l0.052,-0.308l0.051,-0.314l0.048,-0.32l0.047,-0.326l0.044,-0.331l0.042,-0.338l0.02,-0.171l0.02,-0.173l0.019,-0.175l0.019,-0.176l0.018,-0.177l0.017,-0.179l0.016,-0.181l0.016,-0.183l0.016,-0.184l0.015,-0.186l0.014,-0.188l0.013,-0.189l0.013,-0.191l0.012,-0.193l0.011,-0.195l0.011,-0.196l0.11,0.111Zm1.326,5.107l-0.057,0.321l-0.06,0.315l-0.061,0.309l-0.063,0.305l-0.064,0.299l-0.067,0.294l-0.068,0.289l-0.069,0.284l-0.071,0.279l-0.072,0.275l-0.073,0.27l-0.075,0.265l-0.075,0.261l-0.077,0.257l-0.077,0.252l-0.079,0.248l-0.079,0.244l-0.079,0.24l-0.08,0.236l-0.081,0.232l-0.081,0.228l-0.081,0.224l-0.081,0.221l-0.082,0.217l-0.081,0.214l-0.082,0.211l-0.081,0.207l-0.081,0.205l-0.16,0.397l-0.158,0.386l-0.155,0.375l-0.299,0.721l-0.142,0.346l-0.138,0.34l-0.066,0.165l-0.065,0.165l-0.063,0.163l-0.061,0.161l-0.06,0.16l-0.058,0.158l-0.056,0.158l-0.055,0.156l-0.052,0.155l-0.051,0.155l-0.049,0.153l-0.047,0.154l-0.045,0.152l-0.043,0.153l-0.04,0.152l-0.039,0.153l-0.037,0.153l-0.035,0.153l-0.033,0.153l-0.03,0.155l-0.028,0.155l-0.027,0.156l-0.024,0.158l-0.022,0.163l-0.01,0.076l-0.009,0.081l-0.009,0.081l-0.008,0.082l-0.008,0.082l-0.007,0.083l-0.006,0.083l-0.006,0.084l-0.005,0.084l-0.005,0.085l-0.004,0.086l-0.003,0.086l-0.003,0.087l-0.002,0.088l-0.001,0.089l-0.001,0.089l0,0.09l0.001,0.091l0.002,0.092l0.002,0.093l0.003,0.094l0.004,0.094l0.004,0.096l0.006,0.096l0.006,0.097l0.006,0.099l0.008,0.099l0.009,0.1l0.009,0.102l0.01,0.102l0.011,0.104l0.012,0.105l0.013,0.105l0.013,0.107l0.015,0.109l0.015,0.109l0.016,0.11l0.018,0.112l0.018,0.113l0.019,0.114l0.02,0.116l0.021,0.116l0.023,0.118l0.023,0.12l0.024,0.12l0.025,0.122l0.026,0.123l0.028,0.125l0.028,0.126l0.029,0.127l0.031,0.129l0.031,0.13l0.018,0.071l0.01,-0.046l0.083,-0.365l0.084,-0.36l0.085,-0.355l0.087,-0.35l0.087,-0.346l0.089,-0.341l0.089,-0.336l0.09,-0.332l0.091,-0.327l0.092,-0.322l0.092,-0.319l0.092,-0.313l0.093,-0.31l0.094,-0.305l0.093,-0.301l0.094,-0.297l0.093,-0.293l0.094,-0.288l0.093,-0.285l0.094,-0.281l0.093,-0.276l0.092,-0.273l0.093,-0.27l0.182,-0.525l0.179,-0.512l0.176,-0.498l0.339,-0.953l0.161,-0.456l0.155,-0.443l0.148,-0.432l0.071,-0.209l0.069,-0.208l0.067,-0.204l0.066,-0.201l0.062,-0.199l0.061,-0.195l0.059,-0.192l0.056,-0.19l0.053,-0.186l0.052,-0.184l0.048,-0.181l0.046,-0.178l0.044,-0.176l0.041,-0.173l0.038,-0.17l0.035,-0.167l0.033,-0.166l0.03,-0.162l0.027,-0.16l0.025,-0.162l0.01,-0.074l0.011,-0.077l0.009,-0.077l0.009,-0.077l0.009,-0.075l0.007,-0.076l0.007,-0.075l0.006,-0.074l0.006,-0.074l0.004,-0.073l0.004,-0.073l0.004,-0.072l0.002,-0.072l0.002,-0.072l0.001,-0.071l0.001,-0.071l-0.001,-0.071l-0.001,-0.07l-0.001,-0.07l-0.003,-0.069l-0.003,-0.07l-0.004,-0.069l-0.005,-0.068l-0.005,-0.069l-0.006,-0.069l-0.007,-0.068l-0.008,-0.068l-0.008,-0.068l-0.01,-0.068l-0.009,-0.068l-0.011,-0.068l-0.012,-0.068l-0.012,-0.068l-0.013,-0.068l-0.014,-0.068l-0.015,-0.068l-0.016,-0.069l-0.017,-0.068l-0.017,-0.069l-0.018,-0.068l-0.02,-0.069l-0.02,-0.07l-0.021,-0.069l-0.022,-0.07l-0.023,-0.07l-0.024,-0.07l-0.025,-0.071l-0.026,-0.071l-0.027,-0.072l-0.029,-0.071l-0.029,-0.073l-0.03,-0.073l-0.032,-0.073l-0.033,-0.073l-0.033,-0.075l-0.035,-0.074l-0.037,-0.075l-0.037,-0.076l-0.022,-0.043l-0.016,0.093Z"/><path d="M48.572,53.911c-4.459,-22.548 -18.549,-11.238 -26.622,-28.154c-2.001,2.845 -0.941,10.087 5.087,17.352c-2.422,-3.551 -3.752,-6.717 -3.136,-9.199c9.488,8.71 16.25,0.143 24.671,20.001Z" style="stroke:#000;stroke-width:0.55px;"/></g></svg>