<?xml version="1.0" encoding="UTF-8" standalone="no"?>
<svg
   xmlns:dc="http://purl.org/dc/elements/1.1/"
   xmlns:cc="http://creativecommons.org/ns#"
   xmlns:rdf="http://www.w3.org/1999/02/22-rdf-syntax-ns#"
   xmlns:svg="http://www.w3.org/2000/svg"
   xmlns="http://www.w3.org/2000/svg"
   xmlns:sodipodi="http://sodipodi.sourceforge.net/DTD/sodipodi-0.dtd"
   xmlns:inkscape="http://www.inkscape.org/namespaces/inkscape"
   width="100%"
   height="100%"
   viewBox="0 0 97 130"
   version="1.1"
   xml:space="preserve"
   style="fill-rule:evenodd;clip-rule:evenodd;stroke-linecap:round;stroke-linejoin:round;stroke-miterlimit:1.5;"
   id="svg3926"
   sodipodi:docname="mystrix_outline_white.svg"
   inkscape:version="0.92.4 (5da689c313, 2019-01-14)"><metadata
     id="metadata3932"><rdf:RDF><cc:Work
         rdf:about=""><dc:format>image/svg+xml</dc:format><dc:type
           rdf:resource="http://purl.org/dc/dcmitype/StillImage" /></cc:Work></rdf:RDF></metadata><defs
     id="defs3930" /><sodipodi:namedview
     pagecolor="#ffffff"
     bordercolor="#666666"
     borderopacity="1"
     objecttolerance="10"
     gridtolerance="10"
     guidetolerance="10"
     inkscape:pageopacity="0"
     inkscape:pageshadow="2"
     inkscape:window-width="1366"
     inkscape:window-height="705"
     id="namedview3928"
     showgrid="false"
     inkscape:zoom="4.1230769"
     inkscape:cx="48.5"
     inkscape:cy="65"
     inkscape:window-x="-8"
     inkscape:window-y="-8"
     inkscape:window-maximized="1"
     inkscape:current-layer="svg3926" /><g
     id="g3924"><path
       d="M 16.068,7.602 C 6.953,15.497 5.089,27.782 19.918,41.133 13.166,32.245 8.911,23.637 12.208,15.876 12.255,22.982 15.205,29.083 21.094,34.17 14.765,25.531 12.015,16.725 16.068,7.602 Z"
       style="fill-opacity:0;stroke:#ffffff;stroke-width:0.41px"
       id="path3877"
       inkscape:connector-curvature="0" /><path
       d="M 5.449,12.941 C 0.9,25.396 4.588,35.974 15.172,44.98 9.495,38.54 6.318,32.123 5.986,25.731 c 1.452,3.855 3.59,7.348 7.459,9.924 C 7.66,28.778 4.495,21.318 5.449,12.941 Z"
       style="fill-opacity:0;stroke:#ffffff;stroke-width:0.41px"
       id="path3879"
       inkscape:connector-curvature="0" /><path
       d="M 17.069,46.178 C 9.942,44.739 4.385,41.005 0.552,34.749 2.693,45.201 9.036,52.376 22.783,53.774 14.255,51.738 7.997,48.338 5.36,42.763 c 4.319,2.873 8.122,3.598 11.709,3.415 z"
       style="fill-opacity:0;stroke:#ffffff;stroke-width:0.41px"
       id="path3881"
       inkscape:connector-curvature="0" /><path
       d="M 27.174,55.516 C 18.457,56.47 10.157,54.896 2.503,49.384 12.123,67.542 25.001,58.571 35.885,79.629 26.738,58.84 24.188,67.639 11.284,55.447 c 6.779,2.527 11.709,1.931 15.89,0.069 z"
       style="fill-opacity:0;stroke:#ffffff;stroke-width:0.41px"
       id="path3883"
       inkscape:connector-curvature="0" /><path
       d="M 36.36,82.198 C 56.084,72.219 64.534,57.779 54.366,35.974 l 1.845,-0.565 c 9.005,23.593 0.893,38.424 -19.851,46.789 z"
       style="fill-opacity:0;stroke:#ffffff;stroke-width:0.41px"
       id="path3885"
       inkscape:connector-curvature="0" /><path
       d="M 60.853,42.771 62.024,42.66 C 66.171,63.951 58.207,77.277 38.619,82.959 54.461,76.212 64.313,64.742 60.853,42.771 Z"
       style="fill-opacity:0;stroke:#ffffff;stroke-width:0.41px"
       id="path3887"
       inkscape:connector-curvature="0" /><path
       d="m 48.35,49.925 c 2.64,-1.98 4.143,-5.163 4.683,-9.366 l -1.829,-0.357 0.487,-0.453 -0.877,-0.059 0.55,-0.444 -1.193,-0.035 0.889,-0.713 -1.041,-0.164 0.95,-1.518 -4.861,-0.873 7.445,-8.117 -1.106,-0.821 c -2.416,3.586 -5.801,6.465 -10.062,8.706 1.794,1.369 3.701,2.262 5.745,2.569 l -0.455,0.708 0.891,0.204 -0.731,0.79 1.184,0.058 -0.467,0.731 1.315,0.205 -0.599,0.496 2.002,0.6 c -0.242,2.908 -1.346,5.474 -2.92,7.853 z"
       style="fill-opacity:0;stroke:#ffffff;stroke-width:0.41px"
       id="path3889"
       inkscape:connector-curvature="0" /><path
       d="m 54.498,29.555 c -1.684,0.799 -2.808,1.916 -3.589,3.227 1.266,-0.879 2.557,-1.667 3.917,-2.21 z"
       style="fill-opacity:0;stroke:#ffffff;stroke-width:0.41px"
       id="path3891"
       inkscape:connector-curvature="0" /><path
       d="m 54.351,26.623 -0.102,0.818 2.908,0.965 c 2.141,-1.79 3.977,-1.722 5.596,-0.321 -1.282,-1.853 -3.17,-2.272 -5.901,-0.694 -0.832,-0.434 -1.666,-0.726 -2.501,-0.768 z"
       style="fill-opacity:0;stroke:#ffffff;stroke-width:0.41px"
       id="path3893"
       inkscape:connector-curvature="0" /><path
       d="m 62.26,28.999 c -0.955,-0.3 -1.911,-0.242 -2.868,0.164 -0.747,1.807 -1.882,3.402 -3.672,4.64 l 0.767,0.512 c 1.52,-1.22 2.706,-2.696 3.544,-4.44 0.593,-0.56 1.342,-0.841 2.229,-0.876 z"
       style="fill-opacity:0;stroke:#ffffff;stroke-width:0.41px"
       id="path3895"
       inkscape:connector-curvature="0" /><path
       d="m 60.954,40.274 c 8.982,-5.478 13.624,-11.211 12.489,-17.284 4.301,3.763 4.141,10.006 0.111,18.399 1.607,-3.819 2.359,-7.631 1.45,-11.43 -2.493,4.638 -7.832,7.716 -14.05,10.315 z"
       style="fill-opacity:0;stroke:#ffffff;stroke-width:0.41px"
       id="path3897"
       inkscape:connector-curvature="0" /><path
       d="M 76.428,39.506 C 81.06,21.483 71.944,9.214 51.834,1.546 65.173,0.361 80.976,8.404 85.505,24.842 81.4,16.099 75.821,9.184 66.863,6.462 77.134,16.683 80.434,27.685 76.428,39.506 Z"
       style="fill-opacity:0;stroke:#ffffff;stroke-width:0.41px"
       id="path3899"
       inkscape:connector-curvature="0" /><path
       d="m 79.843,11.775 c 1.22,-5.081 3.601,-8.827 7.143,-11.237 -4.95,12.483 3.83,17.525 1.83,30.228 0.4,-9.23 -3.878,-13.489 -6.098,-21.865 -1.016,-0.029 -1.975,0.929 -2.875,2.874 z"
       style="fill-opacity:0;stroke:#ffffff;stroke-width:0.41px"
       id="path3901"
       inkscape:connector-curvature="0" /><path
       d="m 76.01,54.2 c 15.87,-8.612 11.57,-16.943 19.688,-29.096 -2.294,-0.067 -3.899,0.623 -4.879,2.003 l 1.133,0.871 C 85.432,36.371 93.578,39.992 76.01,54.2 Z"
       style="fill-opacity:0;stroke:#ffffff;stroke-width:0.41px"
       id="path3903"
       inkscape:connector-curvature="0" /><path
       d="m 87.632,45.56 c 2.256,-1.694 4.391,-2.069 6.356,-0.557 -12.54,10.99 -6.709,20.943 -30.719,25.311 18.354,-4.82 17.465,-12.502 25.534,-23.973 z"
       style="fill-opacity:0;stroke:#ffffff;stroke-width:0.41px"
       id="path3905"
       inkscape:connector-curvature="0" /><path
       d="m 60.164,72.248 c -4.492,5.678 -6.818,13.014 -6.527,21.464 -3.228,-1.457 -5.14,-4.239 -5.924,-8.154 0.999,1.53 2.247,2.759 3.972,3.415 1.386,-5.943 3.973,-11.578 8.479,-16.725 z"
       style="fill-opacity:0;stroke:#ffffff;stroke-width:0.41px"
       id="path3907"
       inkscape:connector-curvature="0" /><path
       d="m 47.016,85.767 c 1.122,12.072 6.297,16.837 -4.146,23.447 4.571,-13.406 -3.429,-14.417 -6.203,-25.018 3.915,8.762 9.31,10.557 9.896,18.119 3,-4.195 0.131,-8.245 0.453,-16.548 z"
       style="fill-opacity:0;stroke:#ffffff;stroke-width:0.41px"
       id="path3909"
       inkscape:connector-curvature="0" /><path
       d="M51.302,96.182c-0.883,16.833 -9.455,14.114 -1.533,32.128c1.709,-19.495 11.004,-22.597 1.533,-32.128Z"
       style="fill:#fff;fill-opacity:0;"
       id="path3911" /><clipPath
       id="_clip1"><path
         d="M51.302,96.182c-0.883,16.833 -9.455,14.114 -1.533,32.128c1.709,-19.495 11.004,-22.597 1.533,-32.128Z"
         id="path3913" /></clipPath><g
       clip-path="url(#_clip1)"
       id="g3918"><path
         d="m 52.766,104.266 c -3.553,6.348 -6.036,11.52 -3.764,17.841 -0.182,-7.692 5.9,-11.602 3.764,-17.841 z"
         style="fill-opacity:0;stroke:#ffffff;stroke-width:0.41px"
         id="path3916"
         inkscape:connector-curvature="0" /></g><path
       d="m 51.302,96.182 c -0.883,16.833 -9.455,14.114 -1.533,32.128 1.709,-19.495 11.004,-22.597 1.533,-32.128 z"
       style="fill:none;stroke:#ffffff;stroke-width:0.41px"
       id="path3920"
       inkscape:connector-curvature="0" /><path
       d="M 48.572,53.911 C 44.113,31.363 30.023,42.673 21.95,25.757 c -2.001,2.845 -0.941,10.087 5.087,17.352 -2.422,-3.551 -3.752,-6.717 -3.136,-9.199 9.488,8.71 16.25,0.143 24.671,20.001 z"
       style="fill-opacity:0;stroke:#ffffff;stroke-width:0.41px"
       id="path3922"
       inkscape:connector-curvature="0" /></g></svg>