<svg xmlns="http://www.w3.org/2000/svg" width="1608" height="2163" viewBox="0 0 1608 2163"><defs><clipPath id="r76sa"><path fill="#fff" d="M1467 0c-6 12.665-15 27.334-21 40-10.95 27.704-17.483 69.883-13 109 10.933 95.394 41.286 158.26 61 250 7.046 32.786 5.965 93.735-8 120 32.822-124.835-72.282-251.757-98-376-16.835 4.436-34.332 11.397-51 52-2.655-98.563 99.808-173.732 130-195zM855 20c80.302-16.82 172.202-.376 252 36 107.104 48.823 195.847 125.22 248 196 70.334 95.455 70.518 123.333 78 177-7.538-42.922-42.522-99.738-64-130-65.74-92.623-172.457-185.985-258-195 92.506 72.177 146.726 164.458 177 260 32.451 102.413 37.63 206.03-9 299-5.388 10.743 90.48-202.409-64.092-406.66C1140.861 158.497 1029.708 67.192 855 20zm-585 96c-28.927 79.409-101.792 224.484 82 454-163.857-166.736-145.834-238.31-150-315-42.598 75.675-37.12 216.719 130 434C196.768 578.65 24.603 318.885 270 116zM88 209c-16.64 140.51 37.028 289.94 141 391-52.666-18.552-121.358-123.726-137-181-.727 68.625 55.435 248.116 158 333C21.264 579.562 22.569 289.754 88 209zm1137 165c95.883 70.732 57.397 239.664 3 319 49.278-92.486 41.305-146.764 25-198-28 55.365-36.833 81.302-190 156l-47 24 51-34c73.799-55.227 195.097-133.233 158-267zm383 43c-17.722 17.426-43.43 54.143-60 88-27.477 56.143-36.113 109.555-61 174-22.775 58.974-47.87 118.737-136 185-21.407 16.096-50.033 31.188-80 44 24.498-14.332 42.002-27.668 63-42 41.471-33.836 77.32-71.529 106-122 35.108-61.785 42.496-127.415 59-193 10.602-42.133 28.87-66.98 42-84-3.5-3.837-10-10.997-26-10 23.924-32 86.41-46 93-40zm-1246 8c58.545 161.258 152.488 170.031 230 199 31.307 11.7 56.042 13.607 93 34 49.146 27.118 109.43 134.394 125 248-94.295-323.147-339.44-238.44-419-344-12.294 11.368 19.22 101.203 62 162-77.674-67.244-136.511-257.365-91-299zm629 14c20.946-2.238 44.553 2.062 60 29-48.974-43.37-87.446 1.715-93 5-9.33-4.334-33.65-11.278-38-13-.552-.219-.525.969-1 1-2.878.188-4.33.316-5 0-1.1-.518-6.951-4.775-7-5 .061.28-2.036-5.526-3-8l4-5c19.484.083 31.719 5.92 43 14 13.372-9.643 19.546-13.889 40-18zm-115 9c6.666 4.666 12.334 9.334 19 14-21.666 34.688-96.928 127.71-129 138 .333 0 84.833 14 85 14l-12 26c.5.166 12.417 2.5 14 3-3.333 4-7.667 8-11 12 .166 0 15.417.667 17 1-1.066.533-6.767 4.467-7 5 3.333.667 9.667 1.333 13 2-1.993 1.992-6.964 5.971-8.978 7.978 1.046-.078 29.912 6.365 29.978 6.022.358 49.515-49.953 154.565-79 161 31.87-49.528 42.446-85.936 52-135-11.666-4-36.71-11.876-37-12 0-.267 11.854-5.942 12-6-.144.025-22.96-4.963-23-5l8-12c-6.666-.333-12.334-.667-19-1-2.666 2.667 9.791-12.75 10-13-4-1-12.125-2.375-14-3l10-12c-60.375-11.054-89-32.988-102-42 20.503-13.067 96.542-41.603 172-149zm165 36c-12.458.2-30.011 2.473-37 11-2.314 11.339-16.075 38.7-59 78-4.666-2.667-10.334-5.334-15-8 53.353-43.648 55.771-62.222 67-81 4.335-3.431 28.06-8.976 44 0zm-129 6c-.075.481 4.766 19.422 6 20-20.945 7.12-53.293 28.857-69 39 12.302-21.244 40.022-46.97 63-59zm572 30l-1-2M0 573c65.477 119.406 223.69 200.9 286 199-76.882 7.276-153.187-31.779-212-61 10.8 29.773 42.91 61.623 68 80 65.942 48.3 148.257 101.994 242 108C257.21 917.12-.21 779.047 0 573zm940 20c79.005 174.12 88.207 330.036 34 462-57.378 139.68-180.232 252.958-358.73 319.428 43.578-17.825 89.68-50.863 123.73-74.428 139.203-96.337 207.607-218.591 232-332 32.963-153.254-17.6-287.815-62-367 .086-.006 29.118-7.994 31-8zm-324.73 781.428c-5.077 2.077-10.12 3.947-15.107 5.572-1.057.344-2.111.678-3.163 1 .956-.332 3.142-1 2.864-1a870.858 870.858 0 0 0 15.407-5.572zM1276 665l-1-2m-263 13h2m214 12l1 2m-2 0l1 2m-187 21c11.853 86.52 26.793 177.19 6 287-43.002 227.102-230.092 337.096-414 398 211.732-117.17 350.174-211.745 383-422 15.732-100.77 5.702-189.91 1-260 11.873-2.262 23.158-3 24-3zm542 42c-84.487 55.566-144.553 170.157-161 199-51.054 89.53-116.338 151.302-215 186-92.49 32.527-161.854 38.323-156 37 35.767-8.08 38.765-9.544 71-20 98.573-31.974 192.967-92.156 252-186 35.239-56.019 56.134-114.492 82-159 14.013-20.886 23.9-29.829 35-37-7.998-11.06-22.67-14.297-24-12 7.258-12.527 73.742-62.14 116-8zM31 822c60.554 50.532 256.065 133.3 415 110-115.083 49.854-247.168 3-277-9 77.542 77.134 213.667 131.025 263 166 67.516 47.865 122.868 132.316 168 254-13.803-20.13-74.906-170.108-215-251-61.988-35.793-137.412-46.634-195-86-68.758-47.002-105.949-92.023-159-184zm776 84l1 2m243 270h-2m-39.344 24.35c.64-.861.786-1.014.344-.35l-.344.35zM953 1294c-41.647 88.59-68.72 180.7-54 278-27.797-3.5-91.203-69.333-108-147 13.259 11.92 39.908 47.913 73 64 5.091-44.077 21.864-87.485 44-136 22.504-49.322 52.725-100.817 101.656-150.65-4.721 6.351-36.303 51.253-56.656 91.65zm-322 104h2m-24 12c10.147 20.85 18.978 34.997 28 51 20.192 35.815 39.795 56.777 82 122 16.578 25.62 62.304 90.575 52.752 150.215C847.971 1591.512 760.695 1534.29 785 1431c-4.583 63.738 19.78 109.802 32 177 23.825 131.006-61.375 206.026-103 238 5.666-17.665 11.031-32.29 16-51 8.866-37.763 22.65-91.363-1-157-19.417-53.89-43.735-75.506-78-126-20.463-30.155-35.376-60.422-42-102zm244 202c72.468 48.445 90.075 152.3 65 210-17.62 40.544-34.182 74.215-46 104-22.812 57.494-33.436 99.027-40 135-8.572 46.976-4.147 58.806-1 102-153.52-348.894 61.735-330.268 22-551zM816.956 2061.23c.712 1.763.486-14.697 4.044-38.23 5.287-34.971 12.537-63.443 27-104 5.813-16.303 12.998-35.547 21-54 14.972-34.53 25.391-71.535 15-120 0 0-19.143 41.958-44 92-34.737 69.934-41.625 77.721-43 132-1.193 47.088 15.864 82.107 19.956 92.23z"/></clipPath></defs><g><g><path fill="#fff" d="M1467 0c-6 12.665-15 27.334-21 40-10.95 27.704-17.483 69.883-13 109 10.933 95.394 41.286 158.26 61 250 7.046 32.786 5.965 93.735-8 120 32.822-124.835-72.282-251.757-98-376-16.835 4.436-34.332 11.397-51 52-2.655-98.563 99.808-173.732 130-195zM855 20c80.302-16.82 172.202-.376 252 36 107.104 48.823 195.847 125.22 248 196 70.334 95.455 70.518 123.333 78 177-7.538-42.922-42.522-99.738-64-130-65.74-92.623-172.457-185.985-258-195 92.506 72.177 146.726 164.458 177 260 32.451 102.413 37.63 206.03-9 299-5.388 10.743 90.48-202.409-64.092-406.66C1140.861 158.497 1029.708 67.192 855 20zm-585 96c-28.927 79.409-101.792 224.484 82 454-163.857-166.736-145.834-238.31-150-315-42.598 75.675-37.12 216.719 130 434C196.768 578.65 24.603 318.885 270 116zM88 209c-16.64 140.51 37.028 289.94 141 391-52.666-18.552-121.358-123.726-137-181-.727 68.625 55.435 248.116 158 333C21.264 579.562 22.569 289.754 88 209zm1137 165c95.883 70.732 57.397 239.664 3 319 49.278-92.486 41.305-146.764 25-198-28 55.365-36.833 81.302-190 156l-47 24 51-34c73.799-55.227 195.097-133.233 158-267zm383 43c-17.722 17.426-43.43 54.143-60 88-27.477 56.143-36.113 109.555-61 174-22.775 58.974-47.87 118.737-136 185-21.407 16.096-50.033 31.188-80 44 24.498-14.332 42.002-27.668 63-42 41.471-33.836 77.32-71.529 106-122 35.108-61.785 42.496-127.415 59-193 10.602-42.133 28.87-66.98 42-84-3.5-3.837-10-10.997-26-10 23.924-32 86.41-46 93-40zm-1246 8c58.545 161.258 152.488 170.031 230 199 31.307 11.7 56.042 13.607 93 34 49.146 27.118 109.43 134.394 125 248-94.295-323.147-339.44-238.44-419-344-12.294 11.368 19.22 101.203 62 162-77.674-67.244-136.511-257.365-91-299zm629 14c20.946-2.238 44.553 2.062 60 29-48.974-43.37-87.446 1.715-93 5-9.33-4.334-33.65-11.278-38-13-.552-.219-.525.969-1 1-2.878.188-4.33.316-5 0-1.1-.518-6.951-4.775-7-5 .061.28-2.036-5.526-3-8l4-5c19.484.083 31.719 5.92 43 14 13.372-9.643 19.546-13.889 40-18zm-115 9c6.666 4.666 12.334 9.334 19 14-21.666 34.688-96.928 127.71-129 138 .333 0 84.833 14 85 14l-12 26c.5.166 12.417 2.5 14 3-3.333 4-7.667 8-11 12 .166 0 15.417.667 17 1-1.066.533-6.767 4.467-7 5 3.333.667 9.667 1.333 13 2-1.993 1.992-6.964 5.971-8.978 7.978 1.046-.078 29.912 6.365 29.978 6.022.358 49.515-49.953 154.565-79 161 31.87-49.528 42.446-85.936 52-135-11.666-4-36.71-11.876-37-12 0-.267 11.854-5.942 12-6-.144.025-22.96-4.963-23-5l8-12c-6.666-.333-12.334-.667-19-1-2.666 2.667 9.791-12.75 10-13-4-1-12.125-2.375-14-3l10-12c-60.375-11.054-89-32.988-102-42 20.503-13.067 96.542-41.603 172-149zm165 36c-12.458.2-30.011 2.473-37 11-2.314 11.339-16.075 38.7-59 78-4.666-2.667-10.334-5.334-15-8 53.353-43.648 55.771-62.222 67-81 4.335-3.431 28.06-8.976 44 0zm-129 6c-.075.481 4.766 19.422 6 20-20.945 7.12-53.293 28.857-69 39 12.302-21.244 40.022-46.97 63-59zm572 30l-1-2M0 573c65.477 119.406 223.69 200.9 286 199-76.882 7.276-153.187-31.779-212-61 10.8 29.773 42.91 61.623 68 80 65.942 48.3 148.257 101.994 242 108C257.21 917.12-.21 779.047 0 573zm940 20c79.005 174.12 88.207 330.036 34 462-57.378 139.68-180.232 252.958-358.73 319.428 43.578-17.825 89.68-50.863 123.73-74.428 139.203-96.337 207.607-218.591 232-332 32.963-153.254-17.6-287.815-62-367 .086-.006 29.118-7.994 31-8zm-324.73 781.428c-5.077 2.077-10.12 3.947-15.107 5.572-1.057.344-2.111.678-3.163 1 .956-.332 3.142-1 2.864-1a870.858 870.858 0 0 0 15.407-5.572zM1276 665l-1-2m-263 13h2m214 12l1 2m-2 0l1 2m-187 21c11.853 86.52 26.793 177.19 6 287-43.002 227.102-230.092 337.096-414 398 211.732-117.17 350.174-211.745 383-422 15.732-100.77 5.702-189.91 1-260 11.873-2.262 23.158-3 24-3zm542 42c-84.487 55.566-144.553 170.157-161 199-51.054 89.53-116.338 151.302-215 186-92.49 32.527-161.854 38.323-156 37 35.767-8.08 38.765-9.544 71-20 98.573-31.974 192.967-92.156 252-186 35.239-56.019 56.134-114.492 82-159 14.013-20.886 23.9-29.829 35-37-7.998-11.06-22.67-14.297-24-12 7.258-12.527 73.742-62.14 116-8zM31 822c60.554 50.532 256.065 133.3 415 110-115.083 49.854-247.168 3-277-9 77.542 77.134 213.667 131.025 263 166 67.516 47.865 122.868 132.316 168 254-13.803-20.13-74.906-170.108-215-251-61.988-35.793-137.412-46.634-195-86-68.758-47.002-105.949-92.023-159-184zm776 84l1 2m243 270h-2m-39.344 24.35c.64-.861.786-1.014.344-.35l-.344.35zM953 1294c-41.647 88.59-68.72 180.7-54 278-27.797-3.5-91.203-69.333-108-147 13.259 11.92 39.908 47.913 73 64 5.091-44.077 21.864-87.485 44-136 22.504-49.322 52.725-100.817 101.656-150.65-4.721 6.351-36.303 51.253-56.656 91.65zm-322 104h2m-24 12c10.147 20.85 18.978 34.997 28 51 20.192 35.815 39.795 56.777 82 122 16.578 25.62 62.304 90.575 52.752 150.215C847.971 1591.512 760.695 1534.29 785 1431c-4.583 63.738 19.78 109.802 32 177 23.825 131.006-61.375 206.026-103 238 5.666-17.665 11.031-32.29 16-51 8.866-37.763 22.65-91.363-1-157-19.417-53.89-43.735-75.506-78-126-20.463-30.155-35.376-60.422-42-102zm244 202c72.468 48.445 90.075 152.3 65 210-17.62 40.544-34.182 74.215-46 104-22.812 57.494-33.436 99.027-40 135-8.572 46.976-4.147 58.806-1 102-153.52-348.894 61.735-330.268 22-551zM816.956 2061.23c.712 1.763.486-14.697 4.044-38.23 5.287-34.971 12.537-63.443 27-104 5.813-16.303 12.998-35.547 21-54 14.972-34.53 25.391-71.535 15-120 0 0-19.143 41.958-44 92-34.737 69.934-41.625 77.721-43 132-1.193 47.088 15.864 82.107 19.956 92.23z"/><path fill="none" stroke="#000" stroke-miterlimit="50" stroke-width="576" d="M1467 0c-6 12.665-15 27.334-21 40-10.95 27.704-17.483 69.883-13 109 10.933 95.394 41.286 158.26 61 250 7.046 32.786 5.965 93.735-8 120 32.822-124.835-72.282-251.757-98-376-16.835 4.436-34.332 11.397-51 52-2.655-98.563 99.808-173.732 130-195zM855 20c80.302-16.82 172.202-.376 252 36 107.104 48.823 195.847 125.22 248 196 70.334 95.455 70.518 123.333 78 177-7.538-42.922-42.522-99.738-64-130-65.74-92.623-172.457-185.985-258-195 92.506 72.177 146.726 164.458 177 260 32.451 102.413 37.63 206.03-9 299-5.388 10.743 90.48-202.409-64.092-406.66C1140.861 158.497 1029.708 67.192 855 20zm-585 96c-28.927 79.409-101.792 224.484 82 454-163.857-166.736-145.834-238.31-150-315-42.598 75.675-37.12 216.719 130 434C196.768 578.65 24.603 318.885 270 116zM88 209c-16.64 140.51 37.028 289.94 141 391-52.666-18.552-121.358-123.726-137-181-.727 68.625 55.435 248.116 158 333C21.264 579.562 22.569 289.754 88 209zm1137 165c95.883 70.732 57.397 239.664 3 319 49.278-92.486 41.305-146.764 25-198-28 55.365-36.833 81.302-190 156l-47 24 51-34c73.799-55.227 195.097-133.233 158-267zm383 43c-17.722 17.426-43.43 54.143-60 88-27.477 56.143-36.113 109.555-61 174-22.775 58.974-47.87 118.737-136 185-21.407 16.096-50.033 31.188-80 44 24.498-14.332 42.002-27.668 63-42 41.471-33.836 77.32-71.529 106-122 35.108-61.785 42.496-127.415 59-193 10.602-42.133 28.87-66.98 42-84-3.5-3.837-10-10.997-26-10 23.924-32 86.41-46 93-40zm-1246 8c58.545 161.258 152.488 170.031 230 199 31.307 11.7 56.042 13.607 93 34 49.146 27.118 109.43 134.394 125 248-94.295-323.147-339.44-238.44-419-344-12.294 11.368 19.22 101.203 62 162-77.674-67.244-136.511-257.365-91-299zm629 14c20.946-2.238 44.553 2.062 60 29-48.974-43.37-87.446 1.715-93 5-9.33-4.334-33.65-11.278-38-13-.552-.219-.525.969-1 1-2.878.188-4.33.316-5 0-1.1-.518-6.951-4.775-7-5 .061.28-2.036-5.526-3-8l4-5c19.484.083 31.719 5.92 43 14 13.372-9.643 19.546-13.889 40-18zm-115 9c6.666 4.666 12.334 9.334 19 14-21.666 34.688-96.928 127.71-129 138 .333 0 84.833 14 85 14l-12 26c.5.166 12.417 2.5 14 3-3.333 4-7.667 8-11 12 .166 0 15.417.667 17 1-1.066.533-6.767 4.467-7 5 3.333.667 9.667 1.333 13 2-1.993 1.992-6.964 5.971-8.978 7.978 1.046-.078 29.912 6.365 29.978 6.022.358 49.515-49.953 154.565-79 161 31.87-49.528 42.446-85.936 52-135-11.666-4-36.71-11.876-37-12 0-.267 11.854-5.942 12-6-.144.025-22.96-4.963-23-5l8-12c-6.666-.333-12.334-.667-19-1-2.666 2.667 9.791-12.75 10-13-4-1-12.125-2.375-14-3l10-12c-60.375-11.054-89-32.988-102-42 20.503-13.067 96.542-41.603 172-149zm165 36c-12.458.2-30.011 2.473-37 11-2.314 11.339-16.075 38.7-59 78-4.666-2.667-10.334-5.334-15-8 53.353-43.648 55.771-62.222 67-81 4.335-3.431 28.06-8.976 44 0zm-129 6c-.075.481 4.766 19.422 6 20-20.945 7.12-53.293 28.857-69 39 12.302-21.244 40.022-46.97 63-59zm572 30l-1-2M0 573c65.477 119.406 223.69 200.9 286 199-76.882 7.276-153.187-31.779-212-61 10.8 29.773 42.91 61.623 68 80 65.942 48.3 148.257 101.994 242 108C257.21 917.12-.21 779.047 0 573zm940 20c79.005 174.12 88.207 330.036 34 462-57.378 139.68-180.232 252.958-358.73 319.428 43.578-17.825 89.68-50.863 123.73-74.428 139.203-96.337 207.607-218.591 232-332 32.963-153.254-17.6-287.815-62-367 .086-.006 29.118-7.994 31-8zm-324.73 781.428c-5.077 2.077-10.12 3.947-15.107 5.572-1.057.344-2.111.678-3.163 1 .956-.332 3.142-1 2.864-1a870.858 870.858 0 0 0 15.407-5.572zM1276 665l-1-2m-263 13h2m214 12l1 2m-2 0l1 2m-187 21c11.853 86.52 26.793 177.19 6 287-43.002 227.102-230.092 337.096-414 398 211.732-117.17 350.174-211.745 383-422 15.732-100.77 5.702-189.91 1-260 11.873-2.262 23.158-3 24-3zm542 42c-84.487 55.566-144.553 170.157-161 199-51.054 89.53-116.338 151.302-215 186-92.49 32.527-161.854 38.323-156 37 35.767-8.08 38.765-9.544 71-20 98.573-31.974 192.967-92.156 252-186 35.239-56.019 56.134-114.492 82-159 14.013-20.886 23.9-29.829 35-37-7.998-11.06-22.67-14.297-24-12 7.258-12.527 73.742-62.14 116-8zM31 822c60.554 50.532 256.065 133.3 415 110-115.083 49.854-247.168 3-277-9 77.542 77.134 213.667 131.025 263 166 67.516 47.865 122.868 132.316 168 254-13.803-20.13-74.906-170.108-215-251-61.988-35.793-137.412-46.634-195-86-68.758-47.002-105.949-92.023-159-184zm776 84l1 2m243 270h-2m-39.344 24.35c.64-.861.786-1.014.344-.35l-.344.35zM953 1294c-41.647 88.59-68.72 180.7-54 278-27.797-3.5-91.203-69.333-108-147 13.259 11.92 39.908 47.913 73 64 5.091-44.077 21.864-87.485 44-136 22.504-49.322 52.725-100.817 101.656-150.65-4.721 6.351-36.303 51.253-56.656 91.65zm-322 104h2m-24 12c10.147 20.85 18.978 34.997 28 51 20.192 35.815 39.795 56.777 82 122 16.578 25.62 62.304 90.575 52.752 150.215C847.971 1591.512 760.695 1534.29 785 1431c-4.583 63.738 19.78 109.802 32 177 23.825 131.006-61.375 206.026-103 238 5.666-17.665 11.031-32.29 16-51 8.866-37.763 22.65-91.363-1-157-19.417-53.89-43.735-75.506-78-126-20.463-30.155-35.376-60.422-42-102zm244 202c72.468 48.445 90.075 152.3 65 210-17.62 40.544-34.182 74.215-46 104-22.812 57.494-33.436 99.027-40 135-8.572 46.976-4.147 58.806-1 102-153.52-348.894 61.735-330.268 22-551zM816.956 2061.23c.712 1.763.486-14.697 4.044-38.23 5.287-34.971 12.537-63.443 27-104 5.813-16.303 12.998-35.547 21-54 14.972-34.53 25.391-71.535 15-120 0 0-19.143 41.958-44 92-34.737 69.934-41.625 77.721-43 132-1.193 47.088 15.864 82.107 19.956 92.23z" clip-path="url(&quot;#r76sa&quot;)"/></g></g></svg>