<?xml version="1.0" encoding="UTF-8" standalone="no"?><!DOCTYPE svg PUBLIC "-//W3C//DTD SVG 1.1//EN" "http://www.w3.org/Graphics/SVG/1.1/DTD/svg11.dtd"><svg width="100%" height="100%" viewBox="0 0 97 130" version="1.1" xmlns="http://www.w3.org/2000/svg" xmlns:xlink="http://www.w3.org/1999/xlink" xml:space="preserve" xmlns:serif="http://www.serif.com/" style="fill-rule:evenodd;clip-rule:evenodd;stroke-linecap:round;stroke-linejoin:round;stroke-miterlimit:1.5;"><g><path d="M16.068,7.602c-9.115,7.895 -10.979,20.18 3.85,33.531c-6.752,-8.888 -11.007,-17.496 -7.71,-25.257c0.047,7.106 2.997,13.207 8.886,18.294c-6.329,-8.639 -9.079,-17.445 -5.026,-26.568Z" style="fill-opacity:0;stroke:#000;stroke-width:0.41px;"/><path d="M5.449,12.941c-4.549,12.455 -0.861,23.033 9.723,32.039c-5.677,-6.44 -8.854,-12.857 -9.186,-19.249c1.452,3.855 3.59,7.348 7.459,9.924c-5.785,-6.877 -8.95,-14.337 -7.996,-22.714Z" style="fill-opacity:0;stroke:#000;stroke-width:0.41px;"/><path d="M17.069,46.178c-7.127,-1.439 -12.684,-5.173 -16.517,-11.429c2.141,10.452 8.484,17.627 22.231,19.025c-8.528,-2.036 -14.786,-5.436 -17.423,-11.011c4.319,2.873 8.122,3.598 11.709,3.415Z" style="fill-opacity:0;stroke:#000;stroke-width:0.41px;"/><path d="M27.174,55.516c-8.717,0.954 -17.017,-0.62 -24.671,-6.132c9.62,18.158 22.498,9.187 33.382,30.245c-9.147,-20.789 -11.697,-11.99 -24.601,-24.182c6.779,2.527 11.709,1.931 15.89,0.069Z" style="fill-opacity:0;stroke:#000;stroke-width:0.41px;"/><path d="M36.36,82.198c19.724,-9.979 28.174,-24.419 18.006,-46.224l1.845,-0.565c9.005,23.593 0.893,38.424 -19.851,46.789Z" style="fill-opacity:0;stroke:#000;stroke-width:0.41px;"/><path d="M60.853,42.771l1.171,-0.111c4.147,21.291 -3.817,34.617 -23.405,40.299c15.842,-6.747 25.694,-18.217 22.234,-40.188Z" style="fill-opacity:0;stroke:#000;stroke-width:0.41px;"/><path d="M48.35,49.925c2.64,-1.98 4.143,-5.163 4.683,-9.366l-1.829,-0.357l0.487,-0.453l-0.877,-0.059l0.55,-0.444l-1.193,-0.035l0.889,-0.713l-1.041,-0.164l0.95,-1.518l-4.861,-0.873l7.445,-8.117l-1.106,-0.821c-2.416,3.586 -5.801,6.465 -10.062,8.706c1.794,1.369 3.701,2.262 5.745,2.569l-0.455,0.708l0.891,0.204l-0.731,0.79l1.184,0.058l-0.467,0.731l1.315,0.205l-0.599,0.496l2.002,0.6c-0.242,2.908 -1.346,5.474 -2.92,7.853Z" style="fill-opacity:0;stroke:#000;stroke-width:0.41px;"/><path d="M54.498,29.555c-1.684,0.799 -2.808,1.916 -3.589,3.227c1.266,-0.879 2.557,-1.667 3.917,-2.21l-0.328,-1.017Z" style="fill-opacity:0;stroke:#000;stroke-width:0.41px;"/><path d="M54.351,26.623l-0.102,0.818l2.908,0.965c2.141,-1.79 3.977,-1.722 5.596,-0.321c-1.282,-1.853 -3.17,-2.272 -5.901,-0.694c-0.832,-0.434 -1.666,-0.726 -2.501,-0.768Z" style="fill-opacity:0;stroke:#000;stroke-width:0.41px;"/><path d="M62.26,28.999c-0.955,-0.3 -1.911,-0.242 -2.868,0.164c-0.747,1.807 -1.882,3.402 -3.672,4.64l0.767,0.512c1.52,-1.22 2.706,-2.696 3.544,-4.44c0.593,-0.56 1.342,-0.841 2.229,-0.876Z" style="fill-opacity:0;stroke:#000;stroke-width:0.41px;"/><path d="M60.954,40.274c8.982,-5.478 13.624,-11.211 12.489,-17.284c4.301,3.763 4.141,10.006 0.111,18.399c1.607,-3.819 2.359,-7.631 1.45,-11.43c-2.493,4.638 -7.832,7.716 -14.05,10.315Z" style="fill-opacity:0;stroke:#000;stroke-width:0.41px;"/><path d="M76.428,39.506c4.632,-18.023 -4.484,-30.292 -24.594,-37.96c13.339,-1.185 29.142,6.858 33.671,23.296c-4.105,-8.743 -9.684,-15.658 -18.642,-18.38c10.271,10.221 13.571,21.223 9.565,33.044Z" style="fill-opacity:0;stroke:#000;stroke-width:0.41px;"/><path d="M79.843,11.775c1.22,-5.081 3.601,-8.827 7.143,-11.237c-4.95,12.483 3.83,17.525 1.83,30.228c0.4,-9.23 -3.878,-13.489 -6.098,-21.865c-1.016,-0.029 -1.975,0.929 -2.875,2.874Z" style="fill-opacity:0;stroke:#000;stroke-width:0.41px;"/><path d="M76.01,54.2c15.87,-8.612 11.57,-16.943 19.688,-29.096c-2.294,-0.067 -3.899,0.623 -4.879,2.003l1.133,0.871c-6.52,8.393 1.626,12.014 -15.942,26.222Z" style="fill-opacity:0;stroke:#000;stroke-width:0.41px;"/><path d="M87.632,45.56c2.256,-1.694 4.391,-2.069 6.356,-0.557c-12.54,10.99 -6.709,20.943 -30.719,25.311c18.354,-4.82 17.465,-12.502 25.534,-23.973l-1.171,-0.781Z" style="fill-opacity:0;stroke:#000;stroke-width:0.41px;"/><path d="M60.164,72.248c-4.492,5.678 -6.818,13.014 -6.527,21.464c-3.228,-1.457 -5.14,-4.239 -5.924,-8.154c0.999,1.53 2.247,2.759 3.972,3.415c1.386,-5.943 3.973,-11.578 8.479,-16.725Z" style="fill-opacity:0;stroke:#000;stroke-width:0.41px;"/><path d="M47.016,85.767c1.122,12.072 6.297,16.837 -4.146,23.447c4.571,-13.406 -3.429,-14.417 -6.203,-25.018c3.915,8.762 9.31,10.557 9.896,18.119c3,-4.195 0.131,-8.245 0.453,-16.548Z" style="fill-opacity:0;stroke:#000;stroke-width:0.41px;"/><path d="M51.302,96.182c-0.883,16.833 -9.455,14.114 -1.533,32.128c1.709,-19.495 11.004,-22.597 1.533,-32.128Z" style="fill:#fff;fill-opacity:0;"/><clipPath id="_clip1"><path d="M51.302,96.182c-0.883,16.833 -9.455,14.114 -1.533,32.128c1.709,-19.495 11.004,-22.597 1.533,-32.128Z"/></clipPath><g clip-path="url(#_clip1)"><path d="M52.766,104.266c-3.553,6.348 -6.036,11.52 -3.764,17.841c-0.182,-7.692 5.9,-11.602 3.764,-17.841Z" style="fill-opacity:0;stroke:#000;stroke-width:0.41px;"/></g><path d="M51.302,96.182c-0.883,16.833 -9.455,14.114 -1.533,32.128c1.709,-19.495 11.004,-22.597 1.533,-32.128Z" style="fill:none;stroke:#000;stroke-width:0.41px;"/><path d="M48.572,53.911c-4.459,-22.548 -18.549,-11.238 -26.622,-28.154c-2.001,2.845 -0.941,10.087 5.087,17.352c-2.422,-3.551 -3.752,-6.717 -3.136,-9.199c9.488,8.71 16.25,0.143 24.671,20.001Z" style="fill-opacity:0;stroke:#000;stroke-width:0.41px;"/></g></svg>